<svg width="32" height="32" xmlns="http://www.w3.org/2000/svg">

 <g>
  <title>background</title>
  <rect fill="none" id="canvas_background" height="402" width="582" y="-1" x="-1"/>
 </g>
 <g>
  <title>Layer 1</title>
  <path id="svg_2" stroke-miterlimit="10" stroke="#9c83a3" fill="none" d="m15.1,15.1l-10.1,0l0,-8.1c0,-1.1 0.9,-2 2,-2l8.1,0l0,10.1z"/>
  <path id="svg_3" stroke-miterlimit="10" stroke="#9c83a3" fill="none" d="m27,15.1l-10.1,0l0,-10.1l8.1,0c1.1,0 2,0.9 2,2l0,8.1z"/>
  <path id="svg_4" stroke-miterlimit="10" stroke="#9c83a3" fill="none" d="m25,27l-8.1,0l0,-10.1l10.1,0l0,8.1c0,1.1 -0.9,2 -2,2z"/>
  <path id="svg_5" stroke-miterlimit="10" stroke="#9c83a3" fill="none" d="m15.1,27l-8.1,0c-1.1,0 -2,-0.9 -2,-2l0,-8.1l10.1,0l0,10.1z"/>
 </g>
</svg>