<svg width="50" height="50" xmlns="http://www.w3.org/2000/svg">

 <g>
  <title>background</title>
  <rect fill="none" id="canvas_background" height="402" width="582" y="-1" x="-1"/>
 </g>
 <g>
  <title>Layer 1</title>
  <path fill="#9c83a3" id="svg_1" d="m1,16l48,0l0,-14l-48,0l0,14zm2,-12l44,0l0,10l-44,0l0,-10z"/>
  <path fill="#9c83a3" id="svg_2" d="m1,32l48,0l0,-14l-48,0l0,14zm2,-12l44,0l0,10l-44,0l0,-10z"/>
  <path fill="#9c83a3" id="svg_3" d="m1,48l48,0l0,-14l-48,0l0,14zm2,-12l44,0l0,10l-44,0l0,-10z"/>
 </g>
</svg>